<?xml version="1.0" encoding="utf-8"?>
<!-- Generator: Adobe Illustrator 22.0.0, SVG Export Plug-In . SVG Version: 6.00 Build 0)  -->
<svg version="1.1" id="Layer_1" xmlns="http://www.w3.org/2000/svg" xmlns:xlink="http://www.w3.org/1999/xlink" x="0px" y="0px"
	 viewBox="0 0 283.7 132.1" style="enable-background:new 0 0 283.7 132.1;" xml:space="preserve">
<style type="text/css">
	.st0{fill:#DD092D;}
	.st1{fill:#020101;}
</style>
<title>AllkopiNetprint Rõd og svart.svg.png</title>
<path class="st0" d="M227.7,27.6c1-2.1,2.5-4,4.4-5.4c2.9-2.1,6.4-3.2,10-3c2.8,0,5.5,0.7,7.9,2c3.4,1.9,6.1,4.8,7.7,8.3
	c1.6,3.1,2.6,6.5,3,10c0.3,2,0.5,4,0.4,6.1c0,4.4-0.7,8.8-2.1,13c-1.7,4.7-4.5,8.6-8.9,11.2c-3.7,2.2-8.1,3-12.3,2.3
	c-2.3-0.4-4.4-1.5-6-3.1c-0.9-0.8-1.6-1.6-2.3-2.5l-0.2,0.1v19.3c0,0.9,0,0.9-0.9,0.9H213c-1.4,0-1.2,0.2-1.2-1.2V21.9
	c0-0.3,0-0.6,0-0.8s0.2-0.5,0.5-0.5h14c0.2,0,0.3,0,0.5,0c0.6-0.1,0.8,0.2,0.8,0.8c0,1.7,0,3.4,0,5
	C227.5,26.8,227.5,27.2,227.7,27.6z M243.5,45.4c0.1-1.3,0-2.5-0.3-3.8c-0.3-2-1.1-3.9-2.3-5.4c-1.8-2.1-5.7-3.1-8.3-0.9
	c-1.4,1.2-2.3,2.7-2.8,4.5c-0.8,2.7-1,5.6-0.6,8.4c0.2,2.1,0.8,4.1,1.9,5.9c1.6,2.8,5.3,3.8,8.1,2.2c0.3-0.2,0.6-0.4,0.8-0.6
	c1.2-1,2-2.3,2.5-3.7C243.2,49.8,243.6,47.6,243.5,45.4z"/>
<path class="st0" d="M126.5,35.3c0.9-1.2,1.8-2.4,2.7-3.6c2.5-3.5,5-6.9,7.5-10.4c0.3-0.5,0.9-0.8,1.5-0.8c6.3,0,12.6,0,18.8,0
	c0.2,0,0.5-0.1,0.7,0.2l-4.7,5.6c-3.6,4.3-7.2,8.6-10.8,12.9c-0.7,0.9-0.7,0.9-0.2,1.8c4.7,7.9,9.5,15.8,14.2,23.7
	c1,1.7,2.1,3.5,3.1,5.2c0.1,0.2,0.2,0.5,0.4,0.8h-1.1c-6.3,0-12.6,0-19,0c-0.7,0.1-1.3-0.3-1.6-0.9c-2.8-5.4-5.7-10.8-8.5-16.2
	c-0.1-0.2-0.2-0.3-0.4-0.4c-1,1-2,2.1-2.9,3.2c-0.3,0.3-0.2,0.8-0.2,1.2c0,3.9,0,7.8,0,11.8c0,0.3,0,0.6,0,0.8s-0.1,0.5-0.5,0.5
	h-16.5c-0.4,0-0.7-0.1-0.6-0.6c0-0.2,0-0.5,0-0.7V3.1c0-1.4-0.3-1.4,1.3-1.4h15c0.2,0,0.5,0,0.7,0c0.5,0,0.7,0.2,0.6,0.6
	c0,0.3,0,0.6,0,0.8v31.9L126.5,35.3z"/>
<path class="st0" d="M51.2,70.7c-0.3,0.1-0.7,0.1-1.1,0.1H34.2c-0.2,0-0.3,0-0.5,0c-0.6,0.1-0.8-0.2-0.8-0.7
	c-0.1-1.1-0.3-2.3-0.5-3.4c0-0.3-0.1-0.6-0.3-0.8c-0.8,0.7-1.6,1.4-2.4,2.1c-3,2.5-6.7,3.9-10.6,4.2c-3.2,0.4-6.5,0.1-9.6-0.8
	c-5-1.5-8.7-5.9-9.3-11.2c-0.5-2.8-0.3-5.6,0.4-8.3c1.1-4,4-7.2,7.9-8.7c3.3-1.3,6.8-2.2,10.4-2.6c2.8-0.3,5.6-0.8,8.4-1.4
	c0.8-0.2,1.6-0.6,2.3-1c1.6-1,2.2-3.1,1.2-4.7c-0.3-0.5-0.7-0.9-1.1-1.2c-1.8-1.3-6-1.3-7.9-0.1c-1.1,0.7-1.8,1.8-2,3.1
	c-0.2,0.9-0.2,0.9-1.1,0.9H3.6c-0.9,0-0.9,0-0.8-1c0-2.8,0.7-5.6,2.2-8c1.9-2.9,4.6-5,7.9-6.1c2.8-1,5.8-1.6,8.8-1.8
	c4.4-0.4,8.8-0.3,13.1,0.3c2.7,0.3,5.4,1.2,7.8,2.6c2.9,1.7,4.9,4.6,5.6,7.9c0.5,2.3,0.8,4.7,0.8,7.1c0,8.1,0,16.2,0,24.4
	c0,1.4,0.1,2.8,0.2,4.2c0.1,1.3,0.7,2.6,1.7,3.5C51.2,69.5,51.4,70.2,51.2,70.7z M31.3,48.7c-1.7,0.8-3.5,1.4-5.3,1.8
	c-1,0.3-2.1,0.5-3.1,0.8c-1.3,0.3-2.6,1-3.5,2c-1.5,1.7-1.9,5.3,1.1,6.8c3.6,1.8,7.9,0.3,9.7-3.3c0-0.1,0.1-0.2,0.1-0.3
	C31.2,54.1,31.5,51.4,31.3,48.7L31.3,48.7z"/>
<path class="st0" d="M206.8,45.4c0,3.8-0.5,7.6-1.7,11.2c-2.7,7.9-8,12.9-16.1,14.9c-6.3,1.6-12.9,1.1-18.9-1.5
	c-5-2.2-9-6.2-11.1-11.2c-1.3-3.1-2.1-6.4-2.3-9.8c-0.4-4.6,0.1-9.2,1.5-13.5c3-9.3,9.5-14.6,19.1-15.9c4.8-0.7,9.6-0.3,14.2,1.3
	c7.3,2.7,11.8,7.9,14,15.2C206.4,39.1,206.8,42.2,206.8,45.4z M174.3,45.2c-0.1,1.6,0,3.3,0.3,4.9c0.2,2.3,1.1,4.5,2.5,6.4
	c2.1,2.5,5.7,3,8.4,1.1c1.4-1.2,2.5-2.8,2.9-4.6c1.1-4.2,1.3-8.7,0.4-13c-0.3-1.6-1-3.2-1.9-4.6c-1.7-2.7-5.2-3.6-8-1.9
	c-0.3,0.2-0.7,0.5-1,0.7c-1.1,1-2,2.3-2.5,3.8C174.5,40.3,174.2,42.7,174.3,45.2z"/>
<path class="st1" d="M16,105.3v24.9c0,1.3,0.2,1.2-1.1,1.2H4.6c-1,0-1,0.1-1-0.9V84.2c0-1,0-1,1-1c3.2,0,6.5,0,9.7,0
	c0.6-0.1,1.2,0.2,1.5,0.7c4.4,6.1,8.8,12.2,13.1,18.2l3.9,5.4c0.1,0.2,0.3,0.3,0.4,0.5c0.3-0.3,0.2-0.6,0.2-0.9c0-7.6,0-15.2,0-22.8
	c0-1.3-0.2-1.2,1.1-1.2h10.1c1.2,0,1.1-0.1,1.1,1.1v46.1c0,1,0.1,1-1,1c-3,0-6,0-9,0c-0.6,0-1.2-0.3-1.6-0.8c-2.8-4-5.7-8-8.6-11.9
	l-9.1-12.6C16.4,105.8,16.3,105.6,16,105.3z"/>
<path class="st0" d="M74.2,36.4v33.1c0,1.5,0.2,1.3-1.3,1.3H58c-1.5,0-1.3,0.2-1.3-1.2c0-2.2,0-4.3,0-6.5V3.2c0-1.5-0.2-1.4,1.4-1.4
	H73c1.5,0,1.2,0.1,1.2,1.2L74.2,36.4L74.2,36.4z"/>
<path class="st0" d="M100.1,36.3v33.1c0,1.5,0.2,1.4-1.3,1.4H84c-0.2,0-0.5,0-0.7,0c-0.5,0-0.7-0.1-0.6-0.6c0-0.3,0-0.6,0-0.8V3.2
	c0-1.6-0.2-1.5,1.5-1.5h15.4c0.4,0,0.6,0.2,0.6,0.6s0,0.6,0,1V36.3z"/>
<path class="st1" d="M119.1,107.1V84.4c0-1.3-0.2-1.2,1.1-1.2c5.9,0,11.8,0,17.6,0c3.5-0.1,7,0.6,10.2,2.1c4.2,1.9,7.2,5.8,8.1,10.3
	c0.9,3.6,0.7,7.4-0.5,10.9c-1.4,4.3-4.6,7.7-8.8,9.3c-2.6,1.1-5.3,1.6-8.1,1.7c-2.1,0.1-4.2,0-6.3,0.1c-0.8,0-0.9,0-0.9,0.8V130
	c0,0.3,0,0.6,0,0.8s-0.2,0.5-0.5,0.5h-10.9c-1.2,0-1.1,0.1-1.1-1.1V107.1z M131.5,100.7c0,1.9,0,3.8,0,5.6c0,0.5,0.2,0.7,0.7,0.7
	c1.3,0,2.5,0,3.8,0c1.1,0,2.2,0,3.3-0.2c4.9-1,5.7-5.8,4.3-9c-1-2.2-2.9-3-5.2-3.3c-2-0.2-4.1-0.1-6.1-0.1c-0.8,0-0.8,0-0.8,0.9
	L131.5,100.7z"/>
<path class="st1" d="M219.4,99c1.1-1.4,2.4-2.7,3.8-3.8c4.7-3.3,12.4-2.5,15.8,2.7c1.6,2.5,2.4,5.4,2.3,8.3c0,8,0,16.1,0,24.1
	c0,1,0,0.9-0.8,0.9H230c-1,0-0.9-0.1-0.9-1c0-6.6,0-13.1,0-19.7c0-1.1-0.2-2.2-0.7-3.2c-0.8-1.7-2.6-2.7-4.4-2.4
	c-1.8,0.1-3.3,1.2-3.9,2.9c-0.4,1-0.6,2.1-0.6,3.3c0,6.3,0,12.7,0,19c0,1.2,0.2,1.2-1.2,1.2h-10.1c-0.9,0-0.9,0-0.9-0.9V95
	c0-0.9,0-0.9,0.9-0.9h10.3c0.9,0,0.9,0,0.9,0.9C219.4,96.3,219.4,97.5,219.4,99z"/>
<path class="st1" d="M74.5,116.3H64.1c-1.1,0-1.1,0-0.7,1.1c1.7,4.9,7.1,6,11,3.9c1.2-0.6,2.2-1.4,3.1-2.4c0.4-0.4,0.6-0.4,1,0
	c1.9,1.7,3.8,3.4,5.7,5.1c0.4,0.4,0.5,0.6,0.1,1.1c-3,4-7.5,6.5-12.5,6.9c-3.4,0.4-6.9-0.1-10-1.5c-4.4-1.8-7.7-5.5-9.2-10
	c-2.1-5.6-1.8-11.9,0.8-17.3c2.3-5.4,7.3-9.1,13.1-9.8c3.9-0.6,8,0.2,11.4,2.3c2.8,1.8,5,4.4,6.2,7.4c1.3,3,2,6.3,2,9.6
	c0,1,0,1.9,0,2.9c0,0.5-0.2,0.7-0.7,0.7c-0.2,0-0.5,0-0.7,0L74.5,116.3z M63,109.5c3.2,0.2,10.8,0.1,11.7-0.1
	c-0.1-1.2-0.5-2.4-1.1-3.5c-1.3-2.6-4.4-3.6-7-2.3c-0.5,0.2-0.9,0.5-1.3,0.9C63.9,105.8,63.1,107.6,63,109.5z"/>
<path class="st0" d="M283.7,45.7v23.6c0,0.3,0,0.6,0,1s-0.2,0.5-0.5,0.5h-16.7c-0.3,0-0.5-0.1-0.5-0.5s0-0.6,0-0.8V21.9
	c0-1.4-0.3-1.4,1.3-1.4h15.7c0.4,0,0.7,0.2,0.6,0.6c0,0.3,0,0.6,0,0.8L283.7,45.7z"/>
<path class="st1" d="M269.5,119.5c0,3.3,0,6.4,0,9.5c0.1,0.6-0.3,1.1-0.8,1.3c-3.2,1.5-6.8,2-10.3,1.5c-1.3-0.1-2.7-0.5-3.9-1.1
	c-2.5-1.4-4.2-3.8-4.6-6.6c-0.3-1.4-0.5-2.7-0.5-4.1v-14.4c0-1,0-0.9-0.9-0.9s-1.7,0-2.5,0c-0.4,0-0.7-0.1-0.7-0.6
	c0-3.1,0-6.2,0-9.4c0-0.5,0.2-0.6,0.6-0.6c0.9,0,1.8,0,2.8,0c0.6,0,0.7-0.2,0.7-0.8c0-2.3,0-4.6,0-7v-0.7c0-0.9,0-0.9,0.9-0.9h10
	c1.5,0,1.3-0.2,1.3,1.4c0,2.4,0,4.8,0,7.2c0,0.6,0.1,0.8,0.8,0.8c2.2,0,4.3,0,6.5,0c0.6,0,0.8,0.1,0.8,0.7c0,3,0,6.1,0,9.1
	c0,0.6-0.1,0.8-0.7,0.7c-2.2,0-4.3,0-6.5,0c-0.6,0-0.8,0.1-0.8,0.8c0,3.9,0,7.8,0,11.6c0,0.4,0,0.8,0.1,1.2c0.1,1.5,1.5,2.6,3,2.5
	c0,0,0,0,0,0C266.5,120.7,268.1,120.3,269.5,119.5z"/>
<path class="st1" d="M113.2,119.8v5.7c0,1.2,0,2.5,0,3.7c0.1,0.5-0.2,0.9-0.7,1.1c-2.8,1.4-5.9,1.9-9.1,1.7
	c-1.8-0.1-3.6-0.5-5.3-1.4c-2.3-1.3-4-3.6-4.5-6.2c-0.4-1.5-0.5-3.1-0.5-4.6v-14.2c0-1,0-1-1-1c-0.8,0-1.5,0-2.3,0
	c-0.6,0-0.8-0.1-0.8-0.7c0-1,0-2.1,0-3.1c0-2,0-3.9,0-5.9c0-0.8,0-0.8,0.9-0.8s1.6,0,2.4,0c0.6,0,0.8-0.2,0.7-0.8c0-2.4,0-4.8,0-7.2
	c0-0.3,0-0.6,0-0.8c0-0.5,0.2-0.6,0.6-0.6c1.2,0,2.5,0,3.7,0h6.8c1.1,0,1-0.1,1,1v7.4c0,1,0,0.9,0.9,0.9c2.1,0,4.2,0,6.2,0
	c0.7,0,0.8,0.2,0.8,0.8c0,3,0,5.9,0,8.9c0,0.9,0,0.9-1,0.9c-2,0-4.1,0-6.1,0c-0.8,0-0.8,0-0.8,0.9v12.2c-0.1,1.6,1.1,2.9,2.6,3
	c0.1,0,0.3,0,0.4,0c1.4-0.1,2.7-0.3,3.9-0.9C112.6,119.7,112.9,119.7,113.2,119.8z"/>
<path class="st1" d="M173.2,100.8c0.8-1.2,1.4-2.4,2.2-3.4c1.8-2.6,4.9-4,8-3.9c0.6,0,0.8,0.2,0.8,0.8c0,4.1,0,8.1,0,12.2
	c0,0.6-0.2,0.8-0.8,0.7c-1-0.1-2.1,0-3.1,0.3c-3.5,0.8-5.5,3.2-6.4,6.6c-0.3,1.4-0.5,2.8-0.6,4.2c-0.3,4-0.1,8-0.1,12
	c0,1,0,0.9-0.9,0.9h-10.2c-1.1,0-1,0.1-1-1v-29.5c0-2,0-3.9,0-5.9c0-0.6,0.2-0.8,0.8-0.8c3.5,0,7,0,10.5,0c0.6,0,0.8,0.1,0.8,0.7
	C173.1,96.8,173.2,98.8,173.2,100.8z"/>
<path class="st1" d="M200.7,112.7V130c0,0.3,0,0.6,0,0.8s-0.1,0.5-0.5,0.5h-10.9c-0.8,0-0.8,0-0.8-0.8V95c0-1,0-0.9,1-0.9h10.3
	c1,0,1,0,1,1L200.7,112.7z"/>
<path class="st0" d="M275,0h7.9c0.8,0,0.9,0,0.9,0.9c0,4.2,0,8.4,0,12.6c0,0.8,0,0.9-0.9,0.9H267c-0.8,0-0.9,0-0.9-0.9V0.8
	c0-0.8,0-0.8,0.9-0.8H275z"/>
<path class="st1" d="M194.5,81.1c1.9,0,3.8,0,5.6,0c0.6,0,0.8,0.2,0.7,0.8c0,2.8,0,5.5,0,8.3c0,0.6-0.2,0.8-0.8,0.8
	c-3.8,0-7.5,0-11.2,0c-0.6,0-0.7-0.2-0.7-0.8c0-2.8,0-5.5,0-8.3c0-0.6,0.2-0.7,0.8-0.7C190.8,81.1,192.7,81.1,194.5,81.1z"/>
</svg>
